<svg id="Group" xmlns="http://www.w3.org/2000/svg" width="111.411" height="96.953" viewBox="0 0 111.411 96.953">
  <path id="Shape" d="M109.09,33.962H96.733l-4.424-7.014a2.339,2.339,0,0,0-1.26-.973l-3.92-1.249C86.316,19.318,81.005,13.776,72.8,9.714a4.7,4.7,0,0,0,.422-.782,5.019,5.019,0,0,0-.1-4.108A8.361,8.361,0,0,0,67.914.62,10.6,10.6,0,0,0,64.7.114c-3.048,0-5.531,1.367-6.473,3.57a4.774,4.774,0,0,0-.339,1.2,47.3,47.3,0,0,0-7.894-.692c-6.323,0-11.438,1.432-14.63,4.064L31.216,6.945a2.3,2.3,0,0,0-1.43.009L17.331,11.065a2.32,2.32,0,0,0,.026,4.415L75.472,33.962H57.321a11.838,11.838,0,0,0-21.809,0H2.321A2.32,2.32,0,0,0,0,36.283v6.155A2.32,2.32,0,0,0,2.321,44.76h8.47V64.173c0,7.272,6.7,13.193,14.931,13.193H85.689c8.233,0,14.934-5.921,14.934-13.193V44.76h8.467a2.319,2.319,0,0,0,2.321-2.321V36.283A2.319,2.319,0,0,0,109.09,33.962Zm-68.288,0a7.384,7.384,0,0,1,11.229,0Z" transform="translate(0 -0.114)" fill="#fff"/>
  <path id="Path" d="M17.634,42.922v-5.6a2.321,2.321,0,0,0-4.642,0v5.6a2.321,2.321,0,1,0,4.642,0Z" transform="translate(17.163 45.97)" fill="#fff"/>
  <path id="Path-2" data-name="Path" d="M21.637,44.062V36.456a2.321,2.321,0,1,0-4.642,0v7.606a2.321,2.321,0,1,0,4.642,0Z" transform="translate(22.452 44.83)" fill="#fff"/>
  <path id="Path-3" data-name="Path" d="M25.641,42.922v-5.6a2.321,2.321,0,0,0-4.642,0v5.6a2.321,2.321,0,1,0,4.642,0Z" transform="translate(27.741 45.97)" fill="#fff"/>
  <path id="Path-4" data-name="Path" d="M29.644,44.062V36.456a2.321,2.321,0,0,0-4.642,0v7.606a2.321,2.321,0,0,0,4.642,0Z" transform="translate(33.029 44.83)" fill="#fff"/>
  <path id="Path-5" data-name="Path" d="M33.648,42.922v-5.6a2.321,2.321,0,0,0-4.642,0v5.6a2.321,2.321,0,1,0,4.642,0Z" transform="translate(38.319 45.97)" fill="#fff"/>
  <path id="Path-6" data-name="Path" d="M37.65,44.062V36.456a2.321,2.321,0,0,0-4.642,0v7.606a2.321,2.321,0,1,0,4.642,0Z" transform="translate(43.606 44.83)" fill="#fff"/>
  <path id="Path-7" data-name="Path" d="M89.237,39.885H7.772a2.321,2.321,0,1,0,0,4.642H89.237a2.321,2.321,0,1,0,0-4.642Z" transform="translate(7.201 52.426)" fill="#fff"/>
</svg>
