<svg xmlns="http://www.w3.org/2000/svg" width="78.182" height="104.223" viewBox="0 0 78.182 104.223">
  <g id="noun_african-drum_284976" transform="translate(-1)">
    <g id="Group" transform="translate(1)">
      <g id="Group_954" data-name="Group 954">
        <path id="Shape" d="M72.391,5.223h-.019c.005-.1.019-.193.019-.288,0-2.992-2.274-4.924-5.792-4.924H12.162c-3.518,0-5.791,1.932-5.791,4.924,0,.1.014.191.019.288H5.212C2.229,5.223,0,8.279,0,11.016v1.157a5.2,5.2,0,0,0,3.768,4.983C11,50.2,20.668,64.565,29.513,70.031a87.412,87.412,0,0,1-1.56,13.242L39.982,99.6,52.159,83.617a87.932,87.932,0,0,1-1.685-14.5C60.089,61.994,67.782,44.856,73.805,17.3a5.207,5.207,0,0,0,4.376-5.127V11.016a6.272,6.272,0,0,0-5.791-5.792ZM9.846,4.935c0-.358,0-1.449,2.316-1.449H66.6c2.318,0,2.318,1.091,2.318,1.449a2.3,2.3,0,0,1-.019.288H9.865a2.3,2.3,0,0,1-.019-.288ZM19.763,27.8a1.715,1.715,0,0,1-.186.01,1.739,1.739,0,0,1-1.727-1.555c-.254-2.391-.41-6-.459-8.871h3.475c.047,2.768.2,6.225.44,8.5A1.738,1.738,0,0,1,19.763,27.8ZM45.147,17.385h3.475c-.007,3.466-.017,6.227-.028,6.976a1.739,1.739,0,0,1-1.737,1.711h-.026a1.737,1.737,0,0,1-1.711-1.765c.01-.724.021-3.468.028-6.922ZM35.02,32.959a1.737,1.737,0,0,1-1.673,1.8c-.021,0-.043,0-.064,0a1.739,1.739,0,0,1-1.736-1.675c-.085-2.335-.149-8.854-.195-15.7h3.475c.045,6.8.109,13.263.193,15.574Zm17,27.572a50.466,50.466,0,0,1-4.479,6.461,14.559,14.559,0,0,1-8.159,2.495A14.827,14.827,0,0,1,32.5,67.7a53.833,53.833,0,0,1-8.032-13.148,1.738,1.738,0,0,1,3.193-1.371A49.756,49.756,0,0,0,34.44,64.608a89.6,89.6,0,0,1-1.525-10.577,1.738,1.738,0,0,1,3.461-.325c1.088,11.588,2.775,14.787,3.377,15.586.883-1.14,2.712-5.949,3.642-19.023a1.737,1.737,0,0,1,3.466.248,100.164,100.164,0,0,1-1.795,14.033,45.755,45.755,0,0,0,3.949-5.765,1.737,1.737,0,1,1,3,1.744Zm4.665-15.346a1.762,1.762,0,0,1-.523-.08,1.739,1.739,0,0,1-1.135-2.18,97.263,97.263,0,0,0,4.008-25.539h3.475a100.936,100.936,0,0,1-4.17,26.584,1.739,1.739,0,0,1-1.656,1.216Z" transform="translate(0 -0.011)" fill="#fff"/>
        <path id="Path" d="M55.909,63.539H51.818a53.818,53.818,0,0,1-5.247-12.784l-9.74,12.784H29.885L20.269,50.488A53.915,53.915,0,0,1,14.93,63.539H10.737a1.737,1.737,0,1,0,0,3.475H55.909a1.737,1.737,0,1,0,0-3.475" transform="translate(6.636 37.209)" fill="#fff"/>
      </g>
    </g>
  </g>
</svg>
