<svg id="contact_phone-24px" xmlns="http://www.w3.org/2000/svg" width="95.507" height="95.507" viewBox="0 0 95.507 95.507">
  <path id="Path_118" data-name="Path 118" d="M0,0H95.507V95.507H0Z" fill="none"/>
  <path id="Path_119" data-name="Path 119" d="M87.548,3H7.959A7.982,7.982,0,0,0,0,10.959V66.672a7.982,7.982,0,0,0,7.959,7.959H87.548a7.948,7.948,0,0,0,7.919-7.959l.04-55.713A7.982,7.982,0,0,0,87.548,3ZM31.836,14.938A11.938,11.938,0,1,1,19.9,26.877,11.922,11.922,0,0,1,31.836,14.938ZM55.712,62.692H7.959V58.713c0-7.959,15.918-12.336,23.877-12.336s23.877,4.377,23.877,12.336ZM71.033,46.774h6.526l6.009,7.959-7.919,7.919A29.892,29.892,0,0,1,64.785,46.774a28.982,28.982,0,0,1,0-15.918A29.742,29.742,0,0,1,75.649,14.978L83.568,22.9l-6.009,7.959H71.033a23.436,23.436,0,0,0,0,15.918Z" transform="translate(0 8.938)" fill="#4b5926"/>
</svg>
