<svg id="Group_924" data-name="Group 924" xmlns="http://www.w3.org/2000/svg" width="98.054" height="72.676" viewBox="0 0 98.054 72.676">
  <path id="Path_109" data-name="Path 109" d="M49.366,59.107c.65-5.441,4.814-10.48,12.374-14.977,4.678-2.78,8.635-4.218,11.781-4.3C44.1,16.1,27.281,25.79,27.109,25.894c-7.064,4.2-10.941,8.795-11.531,13.658-.686,5.655,3.448,9.8,3.491,9.842a.887.887,0,0,1,.264.629v18.14L53.11,86.929V70.118A14.41,14.41,0,0,1,49.366,59.107Zm-4.725,2.73c-19.116-7.9-25.455-15.061-25.714-15.363l1.331-1.156c.062.072,6.393,7.172,25.058,14.889Z" transform="translate(-15.501 -23.85)" fill="#fff"/>
  <path id="Path_110" data-name="Path 110" d="M95.835,63.17a3.722,3.722,0,0,0,.17-3.029c-1.26-3.738-7.058-7.632-12.067-10.029-7.737-3.7-13.207-4.251-15.254-1.551-1.18,1.555-1.3,4.293-.339,7.706a.879.879,0,0,1-.255.889L49.539,74.083,72.2,84.819,87.317,66.546a.877.877,0,0,1,.92-.285,8.122,8.122,0,0,0,1.955.228A5.993,5.993,0,0,0,95.835,63.17Z" transform="translate(1.808 -12.144)" fill="#fff"/>
  <path id="Path_111" data-name="Path 111" d="M64.066,65.395l1.38-16.942a.878.878,0,0,1,.309-.6c1.361-1.153,2.482-5.547,1.293-8.79a5.06,5.06,0,0,0-5.235-3.456c-2.868,0-6.621,1.367-11.155,4.062C43.6,43.862,39.726,48.456,39.136,53.319c-.686,5.657,3.448,9.8,3.489,9.843a.884.884,0,0,1,.264.628V80.726Z" transform="translate(-3.522 -17.872)" fill="#fff"/>
</svg>
