<svg xmlns="http://www.w3.org/2000/svg" width="46.731" height="34.087" viewBox="0 0 46.731 34.087">
  <g id="Group_1008" data-name="Group 1008" transform="translate(-922 -989.116)">
    <g id="play_1_" data-name="play (1)" transform="translate(968.73 1001.457) rotate(90)" opacity="0.403">
      <g id="Group_1007" data-name="Group 1007">
        <path id="Path_497" data-name="Path 497" d="M20.144,19.026,4.06,1.256A3.174,3.174,0,0,0,1.947,0C.744,0,0,1.558,0,4.165V42.572c0,2.6.743,4.159,1.943,4.159a3.155,3.155,0,0,0,2.1-1.259L20.138,27.7a6.665,6.665,0,0,0,.006-8.676Z" fill="#fff"/>
      </g>
    </g>
    <g id="play_1_2" data-name="play (1)" transform="translate(968.73 989.116) rotate(90)">
      <g id="Group_1007-2" data-name="Group 1007">
        <path id="Path_497-2" data-name="Path 497" d="M20.144,19.026,4.06,1.256A3.174,3.174,0,0,0,1.947,0C.744,0,0,1.558,0,4.165V42.572c0,2.6.743,4.159,1.943,4.159a3.155,3.155,0,0,0,2.1-1.259L20.138,27.7a6.665,6.665,0,0,0,.006-8.676Z" fill="#fff"/>
      </g>
    </g>
  </g>
</svg>
