<svg id="Group_923" data-name="Group 923" xmlns="http://www.w3.org/2000/svg" width="55.04" height="73.373" viewBox="0 0 55.04 73.373">
  <g id="Group_923-2" data-name="Group 923" transform="translate(0 0)">
    <path id="Path_107" data-name="Path 107" d="M50.963,3.721H50.95c0-.069.013-.137.013-.205,0-2.13-1.6-3.5-4.078-3.5H8.562c-2.477,0-4.077,1.375-4.077,3.5,0,.068.01.136.013.205H3.669C1.569,3.721,0,5.9,0,7.844v.824a3.7,3.7,0,0,0,2.653,3.547C7.741,35.74,14.55,45.962,20.777,49.853a62.883,62.883,0,0,1-1.1,9.426L28.147,70.9,36.72,59.524A63.259,63.259,0,0,1,35.534,49.2C42.3,44.132,47.718,31.933,51.959,12.318a3.7,3.7,0,0,0,3.081-3.65V7.844a4.44,4.44,0,0,0-4.077-4.123ZM6.931,3.516c0-.255,0-1.031,1.63-1.031H46.885c1.632,0,1.632.777,1.632,1.031a1.653,1.653,0,0,1-.013.205H6.945a1.653,1.653,0,0,1-.013-.205Zm6.981,16.276a1.194,1.194,0,0,1-.131.007,1.229,1.229,0,0,1-1.216-1.107c-.179-1.7-.289-4.274-.323-6.315h2.446c.033,1.97.138,4.431.309,6.054a1.234,1.234,0,0,1-1.086,1.36Zm17.871-7.414H34.23c0,2.467-.012,4.432-.02,4.965a1.231,1.231,0,0,1-1.223,1.218h-.018a1.231,1.231,0,0,1-1.2-1.256c.007-.516.015-2.468.02-4.927ZM24.654,23.464a1.231,1.231,0,0,1-1.178,1.28h-.045a1.23,1.23,0,0,1-1.222-1.192c-.06-1.662-.105-6.3-.137-11.175h2.446c.032,4.84.077,9.441.136,11.086ZM36.621,43.091a35.938,35.938,0,0,1-3.153,4.6,10.17,10.17,0,0,1-5.744,1.776,10.348,10.348,0,0,1-4.847-1.27,38.4,38.4,0,0,1-5.654-9.359,1.241,1.241,0,0,1,.642-1.624,1.214,1.214,0,0,1,1.606.648,35.5,35.5,0,0,0,4.775,8.133,64.446,64.446,0,0,1-1.074-7.529,1.224,1.224,0,1,1,2.436-.231c.766,8.249,1.953,10.526,2.378,11.095.621-.811,1.909-4.235,2.564-13.541a1.223,1.223,0,1,1,2.44.177,72.05,72.05,0,0,1-1.263,9.989,32.585,32.585,0,0,0,2.78-4.1,1.215,1.215,0,0,1,1.672-.449,1.243,1.243,0,0,1,.443,1.691Zm3.284-10.924a1.228,1.228,0,0,1-.368-.057,1.241,1.241,0,0,1-.8-1.552,69.942,69.942,0,0,0,2.822-18.18h2.446A72.584,72.584,0,0,1,41.071,31.3a1.226,1.226,0,0,1-1.166.866Z" transform="translate(0 -0.011)" fill="#fff" fill-rule="evenodd"/>
    <path id="Path_108" data-name="Path 108" d="M34.131,57.48H31.939a28.833,28.833,0,0,1-2.811-6.849L23.91,57.48H20.189l-5.152-6.992a28.884,28.884,0,0,1-2.86,6.992H9.931a.931.931,0,0,0,0,1.862h24.2a.931.931,0,1,0,0-1.862" transform="translate(6.341 14.031)" fill="#fff" fill-rule="evenodd"/>
  </g>
</svg>
