<svg id="Group" xmlns="http://www.w3.org/2000/svg" width="101.883" height="94.605" viewBox="0 0 101.883 94.605">
  <path id="Path" d="M101.883,8.246A4.676,4.676,0,0,0,97.108,3.5H90.581v6.961A4.676,4.676,0,0,1,85.8,15.207a4.775,4.775,0,0,1-4.776-4.746V3.5H78v6.961a4.776,4.776,0,0,1-9.552,0V3.5H33.271v6.961A4.676,4.676,0,0,1,28.5,15.207a4.775,4.775,0,0,1-4.776-4.746V3.5H20.7v6.961a4.676,4.676,0,0,1-4.776,4.746,4.775,4.775,0,0,1-4.776-4.746V3.5H4.776A4.775,4.775,0,0,0,0,8.246V19.953H101.883Z" transform="translate(0 1.879)" fill="#fff"/>
  <path id="Shape" d="M0,15.9V80.763a4.676,4.676,0,0,0,4.776,4.746H80.551V65.892a1.59,1.59,0,0,1,1.592-1.582h19.74V15.9ZM38.206,30.138h4.776a1.59,1.59,0,0,1,1.592,1.582A1.5,1.5,0,0,1,42.982,33.3H38.206a1.582,1.582,0,1,1,0-3.164ZM22.287,71.271H17.511a1.5,1.5,0,0,1-1.592-1.582,1.59,1.59,0,0,1,1.592-1.582h4.776a1.582,1.582,0,1,1,0,3.164Zm0-18.984H17.511A1.5,1.5,0,0,1,15.919,50.7a1.59,1.59,0,0,1,1.592-1.582h4.776a1.582,1.582,0,1,1,0,3.164Zm0-18.984H17.511a1.5,1.5,0,0,1-1.592-1.582,1.59,1.59,0,0,1,1.592-1.582h4.776a1.582,1.582,0,1,1,0,3.164Zm20.7,37.969H38.206a1.5,1.5,0,0,1-1.592-1.582,1.59,1.59,0,0,1,1.592-1.582h4.776a1.582,1.582,0,1,1,0,3.164Zm4.457-23.1c-3.821,1.582-9.074,7.436-9.233,7.594a1.5,1.5,0,0,1-2.388-.158l-2.865-3.8a1.588,1.588,0,0,1,2.547-1.9l1.751,2.373c1.91-2.057,5.731-5.537,8.915-6.961a1.584,1.584,0,0,1,2.069.791A1.358,1.358,0,0,1,47.439,48.173Zm16.238,23.1H58.9a1.59,1.59,0,0,1-1.592-1.582A1.707,1.707,0,0,1,58.9,68.107h4.776a1.582,1.582,0,1,1,0,3.164Zm0-18.984H58.9A1.59,1.59,0,0,1,57.309,50.7,1.707,1.707,0,0,1,58.9,49.123h4.776a1.582,1.582,0,1,1,0,3.164Zm0-18.984H58.9a1.59,1.59,0,0,1-1.592-1.582A1.707,1.707,0,0,1,58.9,30.138h4.776a1.582,1.582,0,1,1,0,3.164Zm20.7,18.984H79.6A1.591,1.591,0,0,1,78,50.7,1.707,1.707,0,0,1,79.6,49.123h4.776a1.582,1.582,0,1,1,0,3.164Zm0-18.984H79.6A1.59,1.59,0,0,1,78,31.72,1.707,1.707,0,0,1,79.6,30.138h4.776a1.582,1.582,0,1,1,0,3.164Z" transform="translate(0 9.096)" fill="#fff"/>
  <path id="Path-2" data-name="Path" d="M52.6,65.586C54.182,64,58.137,59.891,69.686,48.5H52.6Z" transform="translate(31.248 28.07)" fill="#fff"/>
  <path id="Path-3" data-name="Path" d="M10.682,14.022a1.5,1.5,0,0,0,1.582-1.582V1.682A1.5,1.5,0,0,0,10.682.1,1.5,1.5,0,0,0,9.1,1.682v10.6A1.626,1.626,0,0,0,10.682,14.022Z" transform="translate(5.296 -0.1)" fill="#fff"/>
  <path id="Path-4" data-name="Path" d="M18.482,14.022a1.5,1.5,0,0,0,1.582-1.582V1.682a1.582,1.582,0,0,0-3.164,0v10.6A1.733,1.733,0,0,0,18.482,14.022Z" transform="translate(10.009 -0.1)" fill="#fff"/>
  <path id="Path-5" data-name="Path" d="M46.682,14.022a1.5,1.5,0,0,0,1.582-1.582V1.682a1.582,1.582,0,0,0-3.164,0v10.6A1.626,1.626,0,0,0,46.682,14.022Z" transform="translate(26.71 -0.1)" fill="#fff"/>
  <path id="Path-6" data-name="Path" d="M54.482,14.022a1.5,1.5,0,0,0,1.582-1.582V1.682a1.582,1.582,0,0,0-3.164,0v10.6A1.733,1.733,0,0,0,54.482,14.022Z" transform="translate(31.423 -0.1)" fill="#fff"/>
</svg>
