<svg id="noun_eco-house_2218544" xmlns="http://www.w3.org/2000/svg" width="85.224" height="84.008" viewBox="0 0 85.224 84.008">
  <g id="Group">
    <path id="Shape" d="M83.834,82.6H74.3V38.227L42.613,15.883,10.928,38.228V82.6H1.392a1.369,1.369,0,1,0,0,2.738H83.834a1.369,1.369,0,1,0,0-2.738ZM20.945,46.414a1.371,1.371,0,0,1,1.2-1.191c.526-.064,13-1.509,20,5.464a15.508,15.508,0,0,1,1.7,2.03,13.614,13.614,0,0,1,1.6-1.935c6.148-6.123,17.063-4.853,17.527-4.8a1.371,1.371,0,0,1,1.2,1.19c.058.459,1.331,11.326-4.818,17.449-3.278,3.264-7.919,4.425-11.619,4.792-.045.726-.1,1.162-.1,1.189a1.313,1.313,0,0,1-.065.218,1.271,1.271,0,0,1-.05.168,1.38,1.38,0,0,1-.277.416h0a1.346,1.346,0,0,1-.415.274,1.393,1.393,0,0,1-.172.052,1.359,1.359,0,0,1-.216.064,29.009,29.009,0,0,1-3.292.166c-4.3,0-11.83-.773-16.714-5.63C19.43,59.35,20.88,46.939,20.945,46.414Z" transform="translate(-0.001 -1.329)" fill="#4a5e39"/>
    <path id="Path" d="M85.225,30.895a1.37,1.37,0,0,0-.58-1.117L43.406.7a1.38,1.38,0,0,0-1.589,0L.58,29.778A1.371,1.371,0,0,0,0,30.895v8.154a1.375,1.375,0,0,0,2.169,1.117L42.612,11.645l40.442,28.52a1.38,1.38,0,0,0,1.917-.325,1.355,1.355,0,0,0,.193-1.19,1.327,1.327,0,0,0,.06-.4Z" transform="translate(0 -0.445)" fill="#4a5e39"/>
    <path id="Path-2" data-name="Path" d="M44.326,71.149l-1.12-1.121h0l-1.069-1.069h0L30.28,57.1a1.369,1.369,0,0,1,1.935-1.935l14.04,14.04c0-1.128-.047-2.238-.157-3.292a22.492,22.492,0,0,0-2.208-7.953,13.644,13.644,0,0,0-2.444-3.4c-4.924-4.918-13.5-4.935-16.542-4.77-.167,3.039-.15,11.618,4.77,16.543C33.8,70.455,40.476,71.135,44.326,71.149Z" transform="translate(-1.284 -3.267)" fill="#4a5e39"/>
    <path id="Path-3" data-name="Path" d="M57.7,54.971a1.369,1.369,0,0,1,1.935,1.935l-9.442,9.442q.093,1.124.116,2.3c3.156-.351,6.974-1.351,9.594-3.97C64.056,60.52,64.139,53.346,64,50.6c-2.742-.135-9.929-.043-14.071,4.1a11.487,11.487,0,0,0-1.982,2.727,23.633,23.633,0,0,1,1.776,5.515Z" transform="translate(-2.498 -3.315)" fill="#4a5e39"/>
  </g>
</svg>
