<svg id="noun_Hiking_1307594" xmlns="http://www.w3.org/2000/svg" width="83.279" height="95.685" viewBox="0 0 83.279 95.685">
  <g id="Group" transform="translate(0 0)">
    <path id="Path" d="M15.8,79.422v.6l9.2-.5c.472-2.51,1.652-9.137,2.95-14.961a49.8,49.8,0,0,0,.59-12.551c-1.652-.3-6.726-1.406-6.962-1.406a6.842,6.842,0,0,1-2.36-1c.354,4.318.59,9.539-.236,13.656C17.452,70.686,15.8,79.321,15.8,79.422Z" transform="translate(1.984 0.097)" fill="#4a5e39"/>
    <path id="Path-2" data-name="Path" d="M62.5,34.362c1.888-.2,3.3-1.707,2.95-3.414a3.388,3.388,0,0,0-4.012-2.51,1.224,1.224,0,0,0-.59.1l-.236-1.807a1.672,1.672,0,0,0-1.888-1.305,1.542,1.542,0,0,0-1.534,1.607l.236,1.908c-2.95.3-6.136.7-7.907.8-.354-.5-.944-1.1-1.3-1.707C45.623,24.622,41.61,19.5,35,19.3c-.59,0-3.186-.1-3.186-.1C23.555,19,15.885,25.124,12.7,27.835c-.708.5-2.36,1.707-5.782,13.656-.472,1.607.708,3.213,2.6,3.615a2.334,2.334,0,0,0,.826.1A3.452,3.452,0,0,0,13.76,42.9a75.165,75.165,0,0,1,3.776-10.744c.118-.1,2.242-1.807,3.422-2.611C19.543,34.964,19.425,41.692,19.9,44.1A4.719,4.719,0,0,0,20.6,46.11a4.387,4.387,0,0,0,3.186,2.611c.59.1,3.186.6,6.254,1.305,5.428,1.2,12.745,2.711,14.4,3.514.59,2.611,1.18,10.543,1.416,17.27l8.969-2.51c-.354-6.627-.944-15.664-2.124-18.174C51.4,47.315,47.275,45.809,38.9,44a78.025,78.025,0,0,1,1.888-14.459c.59.7,1.062,1.305,1.534,1.908,1.888,2.51,3.422,4.418,6.136,4.418,1.652,0,6.136-.5,9.677-.9L61.908,67.1h.354a1.146,1.146,0,0,0,.944-.4l2.006-1.908-3.54-30.324A2.03,2.03,0,0,0,62.5,34.362Z" transform="translate(0.366 -0.027)" fill="#4a5e39"/>
    <path id="Oval" d="M8.167,0c4.549.039,8.268,4.4,8.307,9.743s-3.618,9.642-8.167,9.6S.039,14.945,0,9.6,3.618-.039,8.167,0Z" transform="translate(24.244 16.455) rotate(-87.208)" fill="#4a5e39"/>
    <path id="Path-3" data-name="Path" d="M81.766,59.5,72.68,62.111a3.657,3.657,0,0,0-1.534.9l-5.074,4.82a3.715,3.715,0,0,1-2.714,1H61.115a4.844,4.844,0,0,0-1.18.2L45.184,73.256a3.164,3.164,0,0,0-1.3.7l-8.143,6.527a3.527,3.527,0,0,1-2.242.8l-17.111.8a2.7,2.7,0,0,0-1.3.3L4.707,86.511a2.961,2.961,0,0,0-1.888,1.908L.813,93.74a1.434,1.434,0,0,0,1.534,1.807h80.01a1.507,1.507,0,0,0,1.652-1.406V60.806C84.009,59.9,82.828,59.2,81.766,59.5Z" transform="translate(-0.73 0.138)" fill="#4a5e39"/>
  </g>
</svg>
