<svg xmlns="http://www.w3.org/2000/svg" width="69.412" height="82.891" viewBox="0 0 69.412 82.891">
  <g id="noun_meditation_2081555" transform="translate(-21.262 -12.08)">
    <path id="Path_531" data-name="Path 531" d="M38.325,138.876l.917-.785a.739.739,0,0,1,.068-.052c4.847-3.223,10.1-7.047,10.668-7.99.8-3.2,2.07-8.405,2.126-9.018a30.278,30.278,0,0,0-1.341-12.095l-1.058-3.281a2.816,2.816,0,0,0-1.541.344,3.458,3.458,0,0,0-1.8,3.089v15.387a4.228,4.228,0,0,1-1.312,3.056l-9.047,9.818a.706.706,0,0,1-.64.217l-3.754-.653-.041-.008a.273.273,0,0,0-.219.489l1.258.6c.369-.047.635-.065.732-.071l.079,1.409c-.879.05-3.551.448-4.271,1.581a1.115,1.115,0,0,0-.171.754l6.135-1.227A7.07,7.07,0,0,0,38.325,138.876Z" transform="translate(-7.711 -60.557)" fill="#4b5926"/>
    <path id="Path_532" data-name="Path 532" d="M183.892,141.646a1.4,1.4,0,0,0-.188-.522c-.724-1.228-3.15-1.973-4.022-2.156l.289-1.381c.114.024.494.106,1,.265l1.473-.8a.257.257,0,0,0,.116-.208.266.266,0,0,0-.106-.233.271.271,0,0,0-.229-.049l-4.576.893a.706.706,0,0,1-.66-.221l-8.722-9.7a4.23,4.23,0,0,1-1.31-3.054V109.091a3.458,3.458,0,0,0-1.8-3.089,2.818,2.818,0,0,0-1.54-.344l-1.058,3.281a30.263,30.263,0,0,0-1.339,12.094c.056.613,1.3,5.76,2.082,8.922.587.971,6.028,4.836,11.057,8.079a.7.7,0,0,1,.16.141,7.083,7.083,0,0,0,4.038,2.4Z" transform="translate(-93.219 -60.558)" fill="#4b5926"/>
    <path id="Path_533" data-name="Path 533" d="M48.182,204.718l1.487-.185a11.57,11.57,0,0,1-.67-3.185,11.123,11.123,0,0,1,.609-4.076l-2,.385-.267-1.386,9.982-1.925a.7.7,0,0,1,.206-.009l19.658,2.037a.8.8,0,0,0,.684-.274l1.761-2.067a2.185,2.185,0,0,1,1.774-.772l5.268.235,3.223-.117-9.7-2.861a.706.706,0,0,1-.47-.454l-.961-2.885H61.508L60.882,190a.706.706,0,0,1-.5.525l-17.027,4.84c-.029.009-4.453,1.427-4.539,4.976-.026,1.066.747,2.07,2.3,2.985a11.234,11.234,0,0,0,7.064,1.4Z" transform="translate(-14.084 -113.322)" fill="#4b5926"/>
    <path id="Path_534" data-name="Path 534" d="M91.676,222.382c-5.033,1-22.927,3.268-30.386,4.195l-.088.011-1.676.273a.956.956,0,0,0-.706,1.1,1.106,1.106,0,0,0,1.313.758L72.245,226.4a.7.7,0,0,1,.146-.012c.191,0,19.2.336,29.924.423.541.006,1.065,0,1.575-.017a11.1,11.1,0,0,0,1.23-4.375,7.11,7.11,0,0,0-.921-3.624A116.681,116.681,0,0,1,91.676,222.382Z" transform="translate(-27.018 -133.78)" fill="#4b5926"/>
    <path id="Path_535" data-name="Path 535" d="M113.034,28.672a9.441,9.441,0,0,1,8.112,4.777c-.7-4.566-4.073-8.038-8.112-8.038-4.137,0-7.571,3.639-8.159,8.365A9.4,9.4,0,0,1,113.034,28.672Z" transform="translate(-56.834 -8.628)" fill="#4b5926"/>
    <path id="Path_536" data-name="Path 536" d="M113.249,56.318c3.838,0,7.3-5.417,8.083-10.479-.869-4.237-4.176-7.186-8.083-7.186-3.792,0-7.154,3.121-8.041,7.438C106.062,51.079,109.474,56.318,113.249,56.318Z" transform="translate(-57.05 -17.198)" fill="#4b5926"/>
    <path id="Path_537" data-name="Path 537" d="M124.039,16.823a4.743,4.743,0,1,0-9.486,0,8.479,8.479,0,0,1,9.486,0Z" transform="translate(-63.097)" fill="#4b5926"/>
    <path id="Path_538" data-name="Path 538" d="M118.063,89.553v6.026a3.5,3.5,0,1,0,7.01,0V89.553a6.053,6.053,0,0,1-7.009,0Z" transform="translate(-65.369 -50.139)" fill="#4b5926"/>
    <path id="Path_539" data-name="Path 539" d="M119.75,174.194l.643-4.9H102.311l.375,4.9Z" transform="translate(-55.175 -101.748)" fill="#4b5926"/>
    <path id="Path_540" data-name="Path 540" d="M115.3,208.326l-7.363.268h-.057l-5.3-.236a.8.8,0,0,0-.637.277l-1.761,2.066a2.194,2.194,0,0,1-1.9.762l-19.555-2.026-6.208,1.2a9.032,9.032,0,0,0-.879,4.286,9.564,9.564,0,0,0,.714,3.115c8.432-1.058,22.93-2.928,27.346-3.81a144.7,144.7,0,0,0,15.823-4.74.6.6,0,0,0-.224-1.159Z" transform="translate(-35.319 -127.008)" fill="#4b5926"/>
    <path id="Path_541" data-name="Path 541" d="M94.285,114.5l1.068,8.66h18.4l1.07-8.8a31.669,31.669,0,0,1,1.532-9.385l.978-3.038-7.864-1.748v2.278a4.916,4.916,0,1,1-9.832,0v-2.278l-7.864,1.747.978,3.038A31.665,31.665,0,0,1,94.285,114.5Z" transform="translate(-48.355 -57.018)" fill="#4b5926"/>
    <path id="Path_542" data-name="Path 542" d="M193.326,211.811c-.571.2-1.3.457-2.138.744a8.651,8.651,0,0,1,.976,4.083,11.462,11.462,0,0,1-1.043,4.285,15.035,15.035,0,0,0,7.252-2.152,4.854,4.854,0,0,0,2.4-3.962c.007-.809-.873-2.007-2.19-2.982a13.708,13.708,0,0,0-3.925-1.963A2.008,2.008,0,0,1,193.326,211.811Z" transform="translate(-112.651 -128.004)" fill="#4b5926"/>
  </g>
</svg>
