<svg id="noun_Music_1719661" xmlns="http://www.w3.org/2000/svg" width="59.466" height="75.177" viewBox="0 0 59.466 75.177">
  <g id="Group_934" data-name="Group 934" transform="translate(0 0)">
    <path id="Path_123" data-name="Path 123" d="M64.9,22.366a1.678,1.678,0,0,0,.939-.313,1.932,1.932,0,0,0,.626-1.252V9.847a1.524,1.524,0,0,0-1.252-1.565L37.046,2.022a1.217,1.217,0,0,0-1.252.313,1.423,1.423,0,0,0-.626,1.252v53.52c-2.817-3.13-7.355-5.008-12.519-5.008C14.042,52.1,7,57.733,7,64.619s7.042,12.519,15.649,12.519S38.3,71.5,38.3,64.619v-48.2l26.29,5.947Z" transform="translate(-7 -1.961)" fill="#4b5926"/>
  </g>
</svg>
