<?xml version="1.0" encoding="UTF-8"?>
<svg width="217px" height="494px" viewBox="0 0 217 494" version="1.1" xmlns="http://www.w3.org/2000/svg" xmlns:xlink="http://www.w3.org/1999/xlink">
    <!-- Generator: Sketch 62 (91390) - https://sketch.com -->
    <title>mdpi/Untitled</title>
    <desc>Created with Sketch.</desc>
    <g id="Page-1" stroke="none" stroke-width="1" fill="none" fill-rule="evenodd">
        <g id="pause" fill="#FFFFFF" fill-rule="nonzero">
            <path d="M40.064,0 L28.04,0.248 C13.164,0.248 0.804,12.36 0.804,27.24 L0.804,466.904 C0.804,481.78 14.2,493.528 29.076,493.528 L29.16,493.528 L40.136,493.456 C55.028,493.456 66.356,481.536 66.356,466.648 L66.356,26.996 C66.352,12.116 55.028,0 40.064,0 Z" id="Path"></path>
            <path d="M190.584,0 L178.492,0.248 C163.612,0.248 151.192,12.36 151.192,27.24 L151.192,466.904 C151.192,481.78 164.9,493.528 179.772,493.528 L179.856,493.528 L190.672,493.456 C205.552,493.456 216.724,481.536 216.724,466.648 L216.724,26.996 C216.72,12.116 205.548,0 190.584,0 Z" id="Path"></path>
        </g>
    </g>
</svg>