<svg xmlns="http://www.w3.org/2000/svg" width="79.825" height="79.825" viewBox="0 0 79.825 79.825">
  <g id="Play" transform="translate(1250.267 -943)">
    <g id="play_arrow-24px" transform="translate(-1237.205 956.062)">
      <path id="Path_16" data-name="Path 16" d="M8,5V36.495L32.746,20.747Z" transform="translate(9.997 6.248)" fill="#fff"/>
      <path id="Path_17" data-name="Path 17" d="M0,0H53.991V53.991H0Z" fill="none"/>
    </g>
    <g id="Path_18" data-name="Path 18" transform="translate(-1250.267 943)" fill="none">
      <path d="M39.913,0A39.913,39.913,0,1,1,0,39.913,39.913,39.913,0,0,1,39.913,0Z" stroke="none"/>
      <path d="M 39.91260147094727 3 C 34.92810821533203 3 30.09430694580078 3.975547790527344 25.54546737670898 5.899551391601562 C 21.15030670166016 7.758544921875 17.20241546630859 10.42049407958984 13.81145477294922 13.81145477294922 C 10.42049407958984 17.20241546630859 7.758544921875 21.15030670166016 5.899551391601562 25.54546737670898 C 3.975547790527344 30.09430694580078 3 34.92810821533203 3 39.91260147094727 C 3 44.8970947265625 3.975547790527344 49.73089599609375 5.899551391601562 54.27973556518555 C 7.758544921875 58.67489624023438 10.42049407958984 62.62278747558594 13.81145477294922 66.01374816894531 C 17.20241546630859 69.40470886230469 21.15030670166016 72.06665802001953 25.54546737670898 73.92565155029297 C 30.09430694580078 75.84965515136719 34.92810821533203 76.82520294189453 39.91260147094727 76.82520294189453 C 44.8970947265625 76.82520294189453 49.73089599609375 75.84965515136719 54.27973556518555 73.92565155029297 C 58.67489624023438 72.06665802001953 62.62278747558594 69.40470886230469 66.01374816894531 66.01374816894531 C 69.40470886230469 62.62278747558594 72.06665802001953 58.67489624023438 73.92565155029297 54.27973556518555 C 75.84965515136719 49.73089599609375 76.82520294189453 44.8970947265625 76.82520294189453 39.91260147094727 C 76.82520294189453 34.92810821533203 75.84965515136719 30.09430694580078 73.92565155029297 25.54546737670898 C 72.06665802001953 21.15030670166016 69.40470886230469 17.20241546630859 66.01374816894531 13.81145477294922 C 62.62278747558594 10.42049407958984 58.67489624023438 7.758544921875 54.27973556518555 5.899551391601562 C 49.73089599609375 3.975547790527344 44.8970947265625 3 39.91260147094727 3 M 39.91260147094727 0 C 61.95571899414062 0 79.82520294189453 17.86948013305664 79.82520294189453 39.91260147094727 C 79.82520294189453 61.95571899414062 61.95571899414062 79.82520294189453 39.91260147094727 79.82520294189453 C 17.86948013305664 79.82520294189453 0 61.95571899414062 0 39.91260147094727 C 0 17.86948013305664 17.86948013305664 0 39.91260147094727 0 Z" stroke="none" fill="#fff"/>
    </g>
  </g>
</svg>
