<svg height="76.696" viewBox="0 0 72.05 76.696" width="72.05" xmlns="http://www.w3.org/2000/svg"><g fill="#4b5926" transform="translate(-12.102 -5.337)"><path d="m42.008 23.444c-2.662-2.825-11.131-10.882-12.022-11.551-2.476-1.857-9.091-6.453-10.132-6.556h-2.87a1.28 1.28 0 0 0 -1.222.916 36.484 36.484 0 0 0 -1.624 8.313c0 3.473-.316 11.716-.319 11.8a.635.635 0 0 1 -.09.3l-1.174 1.954a3.191 3.191 0 0 0 -.4 2.2l.475 2.69a3.2 3.2 0 0 0 1.023 1.831l.57.507a1.046 1.046 0 0 0 1.731-.93l-.534-3.718a.637.637 0 0 1 1.109-.509l1.481 1.692a.116.116 0 0 0 .11.042.12.12 0 0 0 .1-.068.125.125 0 0 0 .009-.088l-1.189-4.428-.926-1.851a.635.635 0 0 1 -.065-.338c.026-.317.662-7.79 1.974-10.415a21.56 21.56 0 0 1 2.238-3.523l13.078 11.547c.013.012.026.024.038.037l4.006 4.244a2.936 2.936 0 0 0 2.786.841l.364-.084a2.927 2.927 0 0 0 1.474-4.857z"/><path d="m26.818 98.067v33.768l6.7-3.041.27-4.388a8.855 8.855 0 0 0 -.007-1.4q-.021-.213-.051-.425l-2.714-14.25a1.29 1.29 0 0 1 .355-1.111l1.647-1.646a1.267 1.267 0 0 0 .027-1.773c-.013-.014-.026-.028-.037-.043l-1.76-2.244a11.676 11.676 0 0 1 -2.124-4.285l-.538-2.065a1.443 1.443 0 0 1 -.169.031 1.394 1.394 0 0 1 -1.23-.467l-.068-.078.228 1.592a2.322 2.322 0 0 1 -.514 1.813z" transform="translate(-10.134 -61.504)"/><path d="m120.417 115.038c.13.481.242.969.328 1.465l.2 1.123c.031.176.052.352.07.529l1.979-.841a11.162 11.162 0 0 1 7.966-.453l2.132.678-.3-6.211c-.017-.287-.051-.573-.1-.857a60.173 60.173 0 0 1 -5.983 2.856c-1.137.343-4.803 1.317-6.292 1.711z" transform="translate(-74.59 -72.4)"/><path d="m88.644 53.279a4.2 4.2 0 0 1 -2.114 6.97l-.364.084a4.215 4.215 0 0 1 -4-1.208l-3.563-3.772c0 .031-.012.064-.017.1l-.064.512a6.356 6.356 0 0 0 2.855 6.105l4.423 2.838a9.564 9.564 0 0 1 1.584 1.277 16.02 16.02 0 0 1 3.767 5.947c1.443-.382 5.189-1.379 6.3-1.714a64.609 64.609 0 0 0 6.055-2.919 8.9 8.9 0 0 0 -.887-1.962l-2.44-4.008a10.116 10.116 0 0 1 -1.2-2.925 8.92 8.92 0 0 0 -5.933-6.4l-6.257-2a6.285 6.285 0 0 0 -1.478-.28c1.389 1.362 2.6 2.576 3.333 3.355z" transform="translate(-45.71 -30.708)"/><path d="m45.352 45.975c0-.031 0-.06.008-.091l.064-.513a7.57 7.57 0 0 1 .2-.977l-9.914-8.869-.647 1.275a.65.65 0 0 1 -.062.1c-.018.023-1.606 2.1-2.848 3.907a25.474 25.474 0 0 0 13.199 5.168z" transform="translate(-13.807 -20.789)"/><path d="m94.173 124.85a4.079 4.079 0 0 0 -1.8-3.138 4.805 4.805 0 0 0 -3.643-.7c-.131.028-.276.06-.434.1a51.822 51.822 0 0 0 -15.7 6.416l-3.949 2.426.052-3.866-2.584-.822a9.887 9.887 0 0 0 -7.069.406l-2.483 1.055a7.211 7.211 0 0 1 -1.29 3.491l-1.993 2.823a3.456 3.456 0 0 0 -.184.3 5.935 5.935 0 0 0 -.371 4.882l.156.439-1.2.424-.156-.439a7.208 7.208 0 0 1 .461-5.93 4.68 4.68 0 0 1 .254-.4l.76-1.095a19.223 19.223 0 0 0 -2.184 1.892 10.064 10.064 0 0 0 -2.47 4.467 11.465 11.465 0 0 1 -4.71 6.46l-10.061 6.639-.152-2.363-6.608 3v.568a12.361 12.361 0 0 0 1.3 5.5 3.615 3.615 0 0 0 3.251 2.009h.353a12.267 12.267 0 0 0 3.888-.631c.1-.039 12.672-4.923 15.264-6.51l11.574-7.086a.666.666 0 0 1 .119-.057l7.41-2.635a22.538 22.538 0 0 0 9.305-6.285l3.748-4.237a5.078 5.078 0 0 1 .669-.988c2.843-3.158 3.8-4.122 3.842-4.161l.9.9c-.009.009-.985.989-3.8 4.113a4.73 4.73 0 0 0 -.681 1.09l8.88-1.783c.4-.908.753-1.688 1.023-2.289a4.79 4.79 0 0 0 .411-2.236z" transform="translate(-10.134 -79.59)"/><path d="m47.5 92.37a3.528 3.528 0 0 0 6.748 1.947 3.873 3.873 0 0 0 -.012-3.187 11.07 11.07 0 0 1 -5.236 1.376 8.545 8.545 0 0 1 -1.5-.136z" transform="translate(-24.333 -59.08)"/><path d="m28.9 60.768.874 1.748a.664.664 0 0 1 .045.121l.452 1.694a8.865 8.865 0 0 0 3.954 2.721 9.024 9.024 0 0 0 8.857-2.752c.139-.177.28-.365.423-.557a7.619 7.619 0 0 1 -.422-2.093 26.274 26.274 0 0 1 -13.661-5.212c-.292 1.962-.466 3.77-.522 4.33z" transform="translate(-11.571 -35.187)"/><path d="m202.3 158.281-8.818 1.77c-1.58 4.567-2.694 13.219-3.044 16.864a.632.632 0 0 1 -.056.206l-3.532 7.653a1.82 1.82 0 0 0 1.65 2.582h15.327a.3.3 0 0 0 .105-.574c-3.106-1.146-10.264-4.231-9.666-8.115.447-2.92 5.134-13.834 8.034-20.386z" transform="translate(-120.221 -105.323)"/></g></svg>