<svg height="76.483" viewBox="0 0 104.643 76.483" width="104.643" xmlns="http://www.w3.org/2000/svg"><g fill="#fff"><path d="m105.065 28.254c-14.509 5.908-32.653 9.419-52.338 9.419-19.67 0-37.8-3.505-52.3-9.406 4.113-3.075 20.162-14.905 34.147-23.053 3.393 3.567 10.256 6.006 18.17 6.006 8.356 0 15.548-2.72 18.711-6.62 13.657 8.143 29.571 20.479 33.61 23.654z" transform="translate(-.422 1.699)"/><path d="m41.017 61.01a134.961 134.961 0 0 1 -40.2-8.81v-10.766a134.961 134.961 0 0 0 40.2 8.81zm23.319 0a134.961 134.961 0 0 0 40.2-8.81v-10.766a134.961 134.961 0 0 1 -40.2 8.81z" transform="translate(-.355 15.473)"/><path d="m41.017 52.055a134.961 134.961 0 0 1 -40.2-8.81v-10.766a134.961 134.961 0 0 0 40.2 8.81zm23.319 0a134.961 134.961 0 0 0 40.2-8.81v-10.766a134.961 134.961 0 0 1 -40.2 8.81z" transform="translate(-.355 12.125)"/><path d="m41.017 43.1a134.961 134.961 0 0 1 -40.2-8.81v-10.766a134.961 134.961 0 0 0 40.2 8.81zm23.319 0a134.961 134.961 0 0 0 40.2-8.81v-10.766a134.961 134.961 0 0 1 -40.2 8.81z" transform="translate(-.355 8.776)"/><path d="m47.161 10.513c8.169 0 14.791-2.35 14.791-5.249s-6.622-5.249-14.791-5.249-14.792 2.35-14.792 5.249 6.623 5.249 14.792 5.249zm0-1.865c6.943 0 12.572-1.515 12.572-3.384s-5.633-3.384-12.572-3.384-12.573 1.52-12.573 3.384 5.629 3.383 12.573 3.383z" transform="translate(5.006 -.015)"/><path d="m36.861 30.015h19.382v35.066h-19.382zm3.139 4.361h13.1v3.076h-13.1zm0 23.267h13.1v3.077h-13.1zm2.619-17.786v15.38h-2.619v-15.379zm10.477 0v15.38h-2.615v-15.379zm-5.238 0v15.38h-2.615v-15.379z" transform="translate(5.769 11.203)"/></g></svg>